# xmcd
#
# Track frame offsets: 
#        150
#        20687
#        44475
#        64097
#        84137
#        104216
#        126339
#        151271
#        174845
#        197305
#        220522
#
# Disc length: 3233 seconds
#
# Revision: 0
# Processed by: cddbd v1.5.2PL0 Copyright (c) Steve Scherf et al.
# Submitted via: ExactAudioCopyFreeDBPlugin 1.0
#
DISCID=8b0c9f0b
DTITLE=Harouna Samake - Kamale Blues
DYEAR=2018
DGENRE=Blues
TTITLE0=Ayé Namè
TTITLE1=N’Tongoli
TTITLE2=Try Voice
TTITLE3=Balazan
TTITLE4=Dissan Konon
TTITLE5=Bérèma Djémbe
TTITLE6=Blues Chasseur
TTITLE7=Il Est Temp
TTITLE8=Lanaya Fouru
TTITLE9=Vous Avez
TTITLE10=Paani
EXTD=
EXTT0=
EXTT1=
EXTT2=
EXTT3=
EXTT4=
EXTT5=
EXTT6=
EXTT7=
EXTT8=
EXTT9=
EXTT10=
PLAYORDER=
